Genre:Animation | Action | Adventure 
Language:English
IMDb:http://www.imdb.com/title/tt1305591/
Source:T0XiCiNK/IMAGINE.Thx

Format : AVI
Format/Info : Audio Video Interleave
File size : 677 MiB
Duration : 1h 20mn
Overall bit rate : 1 171 Kbps

Video
ID : 0
Format : MPEG-4 Visual
Format profile : Advanced Simple@L5
Format settings, BVOP : Yes
Format settings, QPel : No
Format settings, GMC : No warppoints
Format settings, Matrix : Default (H.263)
Muxing mode : Packed bitstream
Codec ID : XVID
Codec ID/Hint : XviD
Duration : 1h 20mn
Bit rate : 903 Kbps
Width : 692 pixels
Height : 354 pixels
Display aspect ratio : 1.955
Frame rate : 29.970 fps
Color space : YUV
Chroma subsampling : 4:2:0
Bit depth : 8 bits
Scan type : Progressive
Bits/(Pixel*Frame) : 0.123
Stream size : 523 MiB (77%)
Writing library : XviD 1.2.1 (UTC 2008-12-04)

Audio
ID : 1
Format : MPEG Audio
Format version : Version 1
Format profile : Layer 3
Codec ID : 55
Codec ID/Hint : MP3
Duration : 1h 20mn
Bit rate mode : Constant
Bit rate : 256 Kbps
Channel(s) : 2 channels
Sampling rate : 44.1 KHz
Stream size : 148 MiB (22%)
Alignment : Split accross interleaves
Interleave, duration : 33 ms (1.00 video frame)
Interleave, preload duration : 500 ms


Plot:
A young boy named Milo gains a deeper appreciation for his mom after Martians come to Earth to take her away
 
http://www.pix2links.com/images/18230638871267264700.png 
http://www.pix2links.com/images/81094721861764354240.png 
http://www.pix2links.com/images/50461944282964195706.png 
http://www.pix2links.com/images/57953580998701697708.png 
http://www.pix2links.com/images/05863053150569595713.png

Greets:

INK,CRYS,IMAGINE,LKRG,FXG,3Li,FLAWL3SS,TA,iLLUSiON,ViSiON,DTRG SAFCuk009,LU,TheFalcon007,MYSTiC,PrisM,Noir,WBZ,LAP,Rx,Kingdom,SAFCuk009+Fabreezy,HDLiTE,TWiZTED,ExtraTorrentRG.ELEKTRI4KA,MAGNAT,CM8
And to all the other p2p grps past and present